<svg id="Whatsapp" xmlns="http://www.w3.org/2000/svg" width="24" height="24" viewBox="0 0 24 24">
  <g id="Whatsapp-2" data-name="Whatsapp" transform="translate(2 2)">
    <g id="Group_144" data-name="Group 144">
      <path id="Combined_Shape" data-name="Combined Shape" d="M9.958,19.828l-.383-.008a10.043,10.043,0,0,1-4.38-1.2l-4.44,1.16a.51.51,0,0,1-.129.017.5.5,0,0,1-.4-.2.5.5,0,0,1-.084-.435l1.185-4.3-.181-.326A9.949,9.949,0,0,1,.006,10.274L0,9.912A9.968,9.968,0,0,1,17,2.905a9.824,9.824,0,0,1,2.914,7.011A9.946,9.946,0,0,1,9.958,19.828ZM6.307,5.165a.947.947,0,0,0-.688.319l-.046.049A2.819,2.819,0,0,0,4.72,7.627a4.916,4.916,0,0,0,1.047,2.646l.006.008c.009.013.027.039.053.077a10,10,0,0,0,4.35,3.8,7.179,7.179,0,0,0,2.562.685,3.015,3.015,0,0,0,.389-.028l.141-.016a2.613,2.613,0,0,0,1.741-1.221,2.151,2.151,0,0,0,.148-1.221c-.051-.086-.17-.143-.349-.23l-.146-.071c-.243-.121-1.523-.748-1.76-.837a.821.821,0,0,0-.277-.067.353.353,0,0,0-.3.2c-.081.119-.288.39-.816,1a.353.353,0,0,1-.277.147.644.644,0,0,1-.282-.083c-.042-.021-.1-.045-.168-.075a6.661,6.661,0,0,1-1.9-1.2A7.723,7.723,0,0,1,7.44,9.36c-.15-.26-.01-.4.113-.522.072-.072.158-.176.242-.277.049-.059.1-.118.145-.172a1.428,1.428,0,0,0,.228-.367l.03-.061a.477.477,0,0,0-.02-.448c-.029-.056-.146-.341-.281-.672-.174-.423-.388-.946-.515-1.228-.2-.432-.4-.438-.579-.444C6.654,5.165,6.478,5.165,6.307,5.165Z" transform="translate(0.084 0)" fill="#202020"/>
    </g>
  </g>
</svg>
