<svg id="vector" viewBox="0 0 50 50" xmlns="http://www.w3.org/2000/svg">
    <path
        d="M 16 3 C 8.832 3 3 8.832 3 16 L 3 34 C 3 41.167 8.832 47 16 47 L 34 47 C 41.167 47 47 41.167 47 34 L 47 16 C 47 8.832 41.167 3 34 3 L 16 3 Z M 16 5 L 34 5 C 40.087 5 45 9.914 45 16 L 45 34 C 45 40.087 40.087 45 34 45 L 16 45 C 9.914 45 5 40.087 5 34 L 5 16 C 5 9.914 9.914 5 16 5 Z M 37 11 C 36.47 11 35.961 11.211 35.586 11.586 C 35.211 11.961 35 12.47 35 13 C 35 13.53 35.211 14.039 35.586 14.414 C 35.961 14.789 36.47 15 37 15 C 37.53 15 38.039 14.789 38.414 14.414 C 38.789 14.039 39 13.53 39 13 C 39 12.47 38.789 11.961 38.414 11.586 C 38.039 11.211 37.53 11 37 11 Z M 25 14 C 18.937 14 14 18.937 14 25 C 14 31.063 18.937 36 25 36 C 31.063 36 36 31.063 36 25 C 36 18.937 31.063 14 25 14 Z M 25 16 C 29.982 16 34 20.018 34 25 C 34 29.982 29.982 34 25 34 C 20.018 34 16 29.982 16 25 C 16 20.018 20.018 16 25 16 Z"
        fill="#000000" id="path_4" />
</svg>
