<svg id="vector" viewBox="0 0 511 511" xmlns="http://www.w3.org/2000/svg">
    <path
        d="M 503.148 439.148 C 499.894 435.195 498.597 430.089 499.585 425.14 C 500.812 418.976 501.362 412.636 501.222 406.3 C 500.449 371.964 479.195 342.308 449.175 329.335 C 458.015 305.94 462.499 281.308 462.499 256.026 C 462.499 229.272 457.487 203.292 447.612 178.725 C 457.276 171.299 464.319 160.635 467.108 148.366 C 475.971 146.589 483.663 141.292 488.436 133.577 C 497.163 119.472 501.584 103.206 501.225 86.53 C 500.838 68.839 495.037 51.909 484.444 37.569 C 481.979 34.237 477.284 33.538 473.952 35.995 C 470.62 38.46 469.917 43.155 472.378 46.483 C 481.124 58.319 485.913 72.276 486.23 86.854 C 486.527 100.624 482.882 114.053 475.683 125.686 C 473.913 128.541 471.398 130.776 468.441 132.217 L 468.441 95.018 C 468.441 80.147 456.476 68.022 441.664 67.756 C 441.793 66.99 441.91 66.217 442.016 65.436 C 442.555 61.331 439.668 57.561 435.559 57.018 C 431.457 56.475 427.684 59.366 427.145 63.471 C 424.875 80.651 415.829 91.737 399.493 97.366 C 385.665 102.132 370.86 101.354 365.138 100.8 C 361.001 100.409 357.349 103.421 356.95 107.546 C 356.602 111.144 358.86 114.394 362.18 115.429 L 362.18 132.195 C 359.184 130.726 356.625 128.429 354.821 125.488 C 347.989 114.367 344.38 101.554 344.38 88.437 C 344.38 69.175 351.966 51.152 365.747 37.691 C 379.524 24.234 397.727 17.062 417.017 17.523 C 428.173 17.781 438.837 20.617 448.72 25.945 C 452.365 27.914 456.915 26.55 458.88 22.906 C 460.845 19.258 459.485 14.711 455.841 12.746 C 444.025 6.371 430.72 2.84 417.368 2.527 C 394.009 1.984 371.958 10.656 355.266 26.961 C 344.664 37.32 337.098 49.914 332.981 63.699 C 308.227 53.64 282.036 48.527 255.001 48.527 C 227.942 48.527 201.735 53.644 176.974 63.718 C 172.927 50.316 165.615 37.995 155.435 27.796 C 139.681 12.015 118.837 3.038 96.747 2.523 C 73.399 1.984 51.333 10.656 34.645 26.961 C 17.95 43.27 8.754 65.102 8.754 88.434 C 8.754 104.329 13.133 119.856 21.414 133.336 C 26.238 141.188 33.977 146.563 42.891 148.359 C 45.68 160.632 52.723 171.3 62.387 178.73 C 52.512 203.296 47.5 229.277 47.5 256.027 C 47.5 281.3 51.98 305.929 60.816 329.32 C 54.16 332.172 47.847 335.851 42.058 340.347 C 38.785 342.886 38.191 347.597 40.73 350.87 C 43.269 354.14 47.98 354.733 51.253 352.194 C 64.644 341.807 81.401 336.565 98.421 337.432 C 135.265 339.315 164.776 369.713 165.605 406.635 C 165.726 411.881 165.269 417.119 164.253 422.205 C 162.382 431.584 164.819 441.232 170.941 448.678 C 173.843 452.205 175.379 456.491 175.379 461.073 C 175.379 471.846 166.613 480.612 155.84 480.612 L 141.973 480.612 C 145.703 473.354 147.821 465.135 147.821 456.424 L 147.821 414.858 C 147.821 399.983 135.848 387.858 121.036 387.596 C 121.165 386.826 121.29 386.057 121.391 385.276 C 121.934 381.171 119.043 377.401 114.938 376.858 C 110.829 376.319 107.063 379.206 106.52 383.311 C 104.93 395.346 100.063 404.272 91.637 410.596 C 72.688 424.826 42.391 420.401 42.098 420.358 C 38.004 419.717 34.172 422.522 33.535 426.612 C 32.894 430.706 35.695 434.542 39.789 435.178 C 39.961 435.205 40.574 435.299 41.559 435.412 L 41.559 456.424 C 41.559 465.135 43.676 473.354 47.407 480.612 L 33.544 480.612 C 22.767 480.612 14.001 471.846 14.001 461.073 C 14.001 456.491 15.536 452.206 18.439 448.678 C 24.521 441.283 26.931 431.494 25.052 421.819 C 24.193 417.385 23.755 412.831 23.755 408.276 C 23.755 397.077 26.294 386.358 31.302 376.417 C 33.165 372.718 31.677 368.206 27.978 366.343 C 24.279 364.48 19.771 365.968 17.908 369.667 C 11.838 381.722 8.76 394.71 8.76 408.276 C 8.76 413.788 9.287 419.303 10.33 424.678 C 11.35 429.948 10.084 435.221 6.853 439.151 C 1.79 445.303 -0.999 453.092 -0.999 461.073 C -0.999 480.12 14.497 495.612 33.544 495.612 L 58.857 495.612 C 68.31 504.268 80.896 509.557 94.693 509.557 C 108.49 509.557 121.072 504.268 130.529 495.612 L 155.842 495.612 C 174.889 495.612 190.385 480.12 190.385 461.073 C 190.385 458.315 190.045 455.585 189.401 452.932 C 210.46 459.959 232.452 463.526 255.003 463.526 C 277.558 463.526 299.55 459.96 320.605 452.932 C 319.964 455.584 319.621 458.315 319.621 461.073 C 319.621 480.12 335.117 495.612 354.164 495.612 L 379.477 495.612 C 388.93 504.268 401.516 509.557 415.313 509.557 C 429.11 509.557 441.692 504.268 451.149 495.612 L 476.462 495.612 C 495.509 495.612 511.005 480.12 511.005 461.073 C 511.005 453.089 508.216 445.303 503.153 439.147 Z M 56.559 456.426 L 56.559 436.012 C 69.243 435.657 86.75 432.992 100.579 422.645 C 107.669 417.34 113.02 410.622 116.618 402.582 L 120.548 402.582 C 127.318 402.582 132.825 408.09 132.825 414.859 L 132.825 456.425 C 132.825 477.452 115.72 494.558 94.692 494.558 C 73.664 494.558 56.559 477.453 56.559 456.425 Z M 404.375 111.547 C 419.996 106.168 431.121 96.348 437.227 82.746 L 441.165 82.746 C 447.935 82.746 453.442 88.25 453.442 95.019 L 453.442 136.585 C 453.442 157.612 436.337 174.718 415.309 174.718 C 394.281 174.718 377.176 157.613 377.176 136.585 L 377.176 116.163 C 385.055 115.936 394.84 114.831 404.375 111.546 Z M 34.195 125.488 C 27.363 114.367 23.754 101.554 23.754 88.437 C 23.754 69.175 31.344 51.152 45.125 37.691 C 58.902 24.23 77.09 17.058 96.395 17.519 C 114.61 17.945 131.805 25.359 144.817 38.394 C 157.829 51.429 165.215 68.64 165.61 86.855 C 165.911 100.625 162.262 114.05 155.063 125.687 C 153.29 128.546 150.778 130.789 147.825 132.226 L 147.825 95.019 C 147.825 80.148 135.856 68.023 121.048 67.757 C 121.173 66.991 121.29 66.218 121.396 65.437 C 121.935 61.332 119.048 57.562 114.939 57.019 C 110.837 56.476 107.064 59.367 106.525 63.472 C 104.255 80.652 95.212 91.738 78.873 97.367 C 65.045 102.133 50.24 101.355 44.518 100.801 C 40.385 100.41 36.729 103.422 36.33 107.547 C 35.982 111.145 38.24 114.395 41.56 115.43 L 41.56 132.2 C 38.564 130.731 36.005 128.43 34.197 125.489 Z M 56.559 136.586 L 56.559 116.164 C 64.434 115.937 74.223 114.832 83.758 111.547 C 99.379 106.168 110.504 96.348 116.61 82.746 L 120.548 82.746 C 127.318 82.746 132.821 88.25 132.821 95.019 L 132.821 136.585 C 132.821 157.612 115.716 174.718 94.692 174.718 C 73.665 174.718 56.559 157.613 56.559 136.585 Z M 179.336 433.082 C 178.586 430.523 178.434 427.812 178.965 425.141 C 180.195 418.981 180.746 412.641 180.606 406.301 C 179.598 361.563 143.836 324.735 99.188 322.453 C 91.024 322.039 82.918 322.801 75.086 324.633 C 66.734 302.762 62.5 279.703 62.5 256.028 C 62.5 231.872 66.906 208.395 75.582 186.149 C 81.516 188.446 87.957 189.719 94.691 189.719 C 119.941 189.719 141.117 172.008 146.492 148.364 C 155.355 146.591 163.035 141.305 167.816 133.579 C 176.546 119.474 180.968 103.204 180.605 86.532 C 180.55 83.887 180.363 81.266 180.066 78.669 C 203.777 68.626 228.964 63.528 255 63.528 C 281.036 63.528 306.223 68.626 329.938 78.669 C 329.575 81.888 329.372 85.146 329.372 88.435 C 329.372 104.33 333.751 119.853 342.036 133.337 C 346.852 141.181 354.595 146.564 363.509 148.364 C 368.884 172.009 390.06 189.719 415.31 189.719 C 422.044 189.719 428.482 188.446 434.415 186.153 C 443.095 208.391 447.501 231.864 447.501 256.028 C 447.501 279.696 443.271 302.751 434.923 324.618 C 430.028 323.466 424.982 322.72 419.81 322.454 C 395.982 321.239 373.365 329.591 356.126 345.97 C 338.876 362.361 329.376 384.49 329.376 408.275 C 329.376 413.787 329.903 419.306 330.946 424.681 C 331.505 427.564 331.356 430.443 330.598 433.107 C 306.68 443.334 281.258 448.529 255 448.529 C 228.727 448.529 203.273 443.33 179.336 433.084 Z M 415.309 494.559 C 394.282 494.559 377.176 477.454 377.176 456.426 L 377.176 436.012 C 389.86 435.657 407.367 432.992 421.196 422.645 C 428.286 417.34 433.641 410.622 437.239 402.582 L 441.165 402.582 C 447.935 402.582 453.442 408.09 453.442 414.859 L 453.442 456.425 C 453.442 477.452 436.337 494.558 415.309 494.558 Z M 476.457 480.613 L 462.59 480.613 C 466.32 473.355 468.442 465.136 468.442 456.425 L 468.442 414.859 C 468.442 399.984 456.469 387.859 441.657 387.597 C 441.786 386.827 441.911 386.058 442.012 385.277 C 442.555 381.172 439.664 377.402 435.559 376.859 C 431.457 376.32 427.684 379.207 427.141 383.312 C 425.551 395.347 420.684 404.273 412.258 410.597 C 393.309 424.827 363.012 420.402 362.719 420.359 C 358.625 419.718 354.793 422.523 354.156 426.613 C 353.515 430.707 356.316 434.543 360.41 435.179 C 360.582 435.206 361.195 435.3 362.18 435.413 L 362.18 456.425 C 362.18 465.136 364.297 473.355 368.028 480.613 L 354.161 480.613 C 343.388 480.613 334.622 471.847 334.622 461.074 C 334.622 456.492 336.153 452.207 339.06 448.676 C 345.138 441.285 347.548 431.496 345.673 421.821 C 344.814 417.387 344.376 412.829 344.376 408.274 C 344.376 388.641 352.22 370.376 366.458 356.844 C 380.688 343.321 399.368 336.43 419.044 337.434 C 455.888 339.317 485.399 369.715 486.228 406.637 C 486.349 411.879 485.892 417.117 484.876 422.207 C 483.005 431.582 485.442 441.23 491.564 448.676 C 494.466 452.207 496.002 456.492 496.002 461.071 C 496.002 471.848 487.236 480.614 476.459 480.614 Z M 476.457 480.613"
        fill="#000000" id="path" />
    <path
        d="M 356.5 313.227 L 356.5 245.481 C 356.5 235.563 348.434 227.497 338.516 227.497 L 295.637 227.497 L 295.637 179.513 C 295.637 169.599 287.571 161.533 277.653 161.533 L 171.485 161.533 C 161.567 161.533 153.501 169.599 153.501 179.513 L 153.501 237.826 C 153.501 247.744 161.567 255.81 171.485 255.81 L 195.493 255.81 L 195.493 313.228 C 195.493 323.146 203.559 331.212 213.477 331.212 L 227.739 331.212 C 231.884 331.212 235.239 327.857 235.239 323.712 C 235.239 319.571 231.884 316.212 227.739 316.212 L 213.477 316.212 C 211.829 316.212 210.493 314.876 210.493 313.228 L 210.493 255.81 L 211.235 255.81 L 230.356 273.384 C 233.778 276.529 238.063 278.165 242.446 278.165 C 244.895 278.165 247.38 277.653 249.759 276.606 C 256.392 273.696 260.509 267.387 260.509 260.141 L 260.509 255.809 L 277.654 255.809 C 285.955 255.809 292.939 250.153 295.002 242.496 L 338.518 242.496 C 340.166 242.496 341.502 243.836 341.502 245.48 L 341.502 313.226 C 341.502 314.874 340.166 316.21 338.518 316.21 L 317.577 316.21 C 315.706 316.21 313.905 316.909 312.522 318.167 L 294.366 334.73 C 293.116 335.871 291.815 335.546 291.151 335.253 C 290.483 334.96 289.37 334.214 289.37 332.523 L 289.37 323.71 C 289.37 319.569 286.015 316.21 281.87 316.21 L 262.265 316.21 C 258.124 316.21 254.765 319.569 254.765 323.71 C 254.765 327.851 258.124 331.21 262.265 331.21 L 274.37 331.21 L 274.37 332.523 C 274.37 339.753 278.479 346.058 285.093 348.976 C 287.48 350.027 289.968 350.546 292.429 350.542 C 296.792 350.542 301.058 348.925 304.472 345.812 L 320.484 331.21 L 338.519 331.21 C 348.437 331.21 356.503 323.144 356.503 313.226 Z M 280.637 237.824 C 280.637 239.472 279.301 240.808 277.653 240.808 L 253.008 240.808 C 248.867 240.808 245.508 244.167 245.508 248.308 L 245.508 260.14 C 245.508 261.835 244.391 262.581 243.727 262.874 C 243.059 263.167 241.754 263.487 240.508 262.339 L 219.235 242.788 C 217.848 241.515 216.04 240.808 214.157 240.808 L 171.485 240.808 C 169.84 240.808 168.501 239.472 168.501 237.824 L 168.501 179.511 C 168.501 177.866 169.841 176.531 171.485 176.531 L 277.657 176.531 C 279.302 176.531 280.641 177.867 280.641 179.511 L 280.641 237.824 Z M 280.637 237.824"
        fill="#000000" id="path_1" />
    <path
        d="M 235.996 201.172 L 198.683 201.172 C 194.538 201.172 191.183 204.527 191.183 208.672 C 191.183 212.813 194.538 216.172 198.683 216.172 L 235.996 216.172 C 240.141 216.172 243.496 212.813 243.496 208.672 C 243.496 204.527 240.141 201.172 235.996 201.172 Z M 235.996 201.172"
        fill="#000000" id="path_2" />
    <path
        d="M 314.773 286.852 C 318.914 286.852 322.273 283.493 322.273 279.352 C 322.273 275.211 318.914 271.852 314.773 271.852 L 279.531 271.852 C 275.39 271.852 272.031 275.211 272.031 279.352 C 272.031 283.493 275.39 286.852 279.531 286.852 Z M 314.773 286.852"
        fill="#000000" id="path_3" />
</svg>
