<svg id="vector" viewBox="0 0 50 50" xmlns="http://www.w3.org/2000/svg">
    <path
        d="M 25 0 C 22.801 0 21 1.801 21 4 C 21 4.516 21.102 5.016 21.281 5.469 C 15.656 6.93 12 11.816 12 18 C 12 25.832 10.078 29.398 8.25 31.406 C 7.336 32.41 6.434 33.02 5.656 33.594 C 5.266 33.879 4.91 34.164 4.594 34.531 C 4.277 34.898 4 35.422 4 36 C 4 37.375 4.844 38.543 6.031 39.313 C 7.219 40.082 8.777 40.578 10.656 40.969 C 13.094 41.473 16.102 41.738 19.406 41.875 C 19.156 42.539 19 43.254 19 44 C 19 47.301 21.699 50 25 50 C 28.301 50 31 47.301 31 44 C 31 43.25 30.848 42.535 30.594 41.875 C 33.898 41.738 36.906 41.473 39.344 40.969 C 41.223 40.578 42.781 40.082 43.969 39.313 C 45.156 38.543 46 37.375 46 36 C 46 35.422 45.723 34.898 45.406 34.531 C 45.09 34.164 44.734 33.879 44.344 33.594 C 43.566 33.02 42.664 32.41 41.75 31.406 C 39.922 29.398 38 25.832 38 18 C 38 11.82 34.336 6.938 28.719 5.469 C 28.898 5.016 29 4.516 29 4 C 29 1.801 27.199 0 25 0 Z M 25 2 C 26.117 2 27 2.883 27 4 C 27 5.117 26.117 6 25 6 C 23.883 6 23 5.117 23 4 C 23 2.883 23.883 2 25 2 Z M 27.344 7.188 C 32.676 8.137 36 12.258 36 18 C 36 26.168 38.078 30.363 40.25 32.75 C 41.336 33.941 42.434 34.688 43.156 35.219 C 43.516 35.484 43.785 35.707 43.906 35.844 C 44.027 35.98 44 35.969 44 36 C 44 36.625 43.711 37.082 42.875 37.625 C 42.039 38.168 40.68 38.672 38.938 39.031 C 35.453 39.754 30.492 40 25 40 C 19.508 40 14.547 39.754 11.063 39.031 C 9.32 38.672 7.961 38.168 7.125 37.625 C 6.289 37.082 6 36.625 6 36 C 6 35.969 5.973 35.98 6.094 35.844 C 6.215 35.707 6.484 35.484 6.844 35.219 C 7.566 34.688 8.664 33.941 9.75 32.75 C 11.922 30.363 14 26.168 14 18 C 14 12.262 17.328 8.172 22.656 7.219 C 23.32 7.707 24.121 8 25 8 C 25.887 8 26.68 7.684 27.344 7.188 Z M 21.563 41.938 C 22.684 41.961 23.824 42 25 42 C 26.176 42 27.316 41.961 28.438 41.938 C 28.793 42.539 29 43.25 29 44 C 29 46.223 27.223 48 25 48 C 22.777 48 21 46.223 21 44 C 21 43.242 21.199 42.539 21.563 41.938 Z"
        fill="#000000" id="path" />
</svg>
