<svg id="vector" viewBox="0 0 32 32" xmlns="http://www.w3.org/2000/svg">
    <path
        d="M 16.167 24 L 9.167 24 C 8.523 24 8 23.477 8 22.833 L 8 17.833 C 8 17.19 8.523 16.666 9.167 16.666 L 10.667 16.666 L 10.667 15.166 C 10.667 14.967 10.785 14.788 10.966 14.708 C 11.148 14.629 11.36 14.664 11.506 14.798 L 13.529 16.666 L 16.167 16.666 C 16.81 16.666 17.334 17.189 17.334 17.833 L 17.334 22.833 C 17.333 23.477 16.81 24 16.167 24 Z"
        fill="#8ce1eb" id="path" />
    <path
        d="M 20.833 17.333 C 20.71 17.333 20.588 17.287 20.494 17.201 L 18.471 15.333 L 15.833 15.333 C 15.19 15.333 14.666 14.81 14.666 14.166 L 14.666 9.166 C 14.667 8.523 15.19 8 15.833 8 L 22.833 8 C 23.477 8 24 8.523 24 9.167 L 24 14.167 C 24 14.81 23.477 15.334 22.833 15.334 L 21.333 15.334 L 21.333 16.834 C 21.333 17.033 21.215 17.212 21.034 17.292 C 20.969 17.32 20.901 17.333 20.833 17.333 Z"
        fill="#8ce1eb" id="path_1" />
    <path
        d="M 21.333 20.667 C 20.598 20.667 20 20.069 20 19.334 C 20 18.599 20.598 18 21.333 18 C 22.068 18 22.666 18.598 22.666 19.333 C 22.666 20.068 22.068 20.667 21.333 20.667 Z"
        fill="#26c6da" id="path_2" />
    <path
        d="M 10.667 10.667 C 9.932 10.667 9.334 10.069 9.334 9.334 C 9.333 8.598 9.932 8 10.667 8 C 11.402 8 12 8.598 12 9.333 C 12 10.069 11.402 10.667 10.667 10.667 Z"
        fill="#26c6da" id="path_3" />
    <path
        d="M 23.5 24 L 19.167 24 C 18.891 24 18.667 23.776 18.667 23.5 L 18.667 23.167 C 18.667 22.156 19.489 21.334 20.5 21.334 L 22.167 21.334 C 23.178 21.334 24 22.156 24 23.167 L 24 23.5 C 24 23.776 23.776 24 23.5 24 Z"
        fill="#26c6da" id="path_4" />
    <path
        d="M 12.833 14 L 8.5 14 C 8.224 14 8 13.776 8 13.5 L 8 13.167 C 8 12.156 8.822 11.334 9.833 11.334 L 11.5 11.334 C 12.511 11.334 13.333 12.156 13.333 13.167 L 13.333 13.5 C 13.333 13.776 13.109 14 12.833 14 Z"
        fill="#26c6da" id="path_5" />
</svg>
